<svg width="104" height="26" viewBox="0 0 104 26" fill="none" xmlns="http://www.w3.org/2000/svg">
<path d="M102.86 15.2313C102.86 21.7063 99.3098 24.9438 92.2098 24.9438C85.1098 24.9438 81.5598 21.7063 81.5598 15.2313V1.41724H86.6973V15.0672C86.6973 16.9704 87.1098 18.4032 87.9348 19.3657C88.7848 20.3282 90.2098 20.8094 92.2098 20.8094C94.2098 20.8094 95.6223 20.3282 96.4473 19.3657C97.2973 18.4032 97.7223 16.9704 97.7223 15.0672V1.41724H102.86V15.2313Z" fill="white" stroke="white" stroke-width="0.5" stroke-linejoin="round"/>
<path d="M54.2249 24.5829H49.1624V1.41724H54.9749L62.8874 15.6907L70.7624 1.41724H76.6124V24.5829H71.5499V9.48912L64.6499 21.6297H61.1249L54.2249 9.48912V24.5829Z" fill="white" stroke="white" stroke-width="0.5" stroke-linejoin="round"/>
<path d="M46.2377 24.5829H40.8752L39.0002 19.661H28.8377L26.9627 24.5829H21.6002L31.0127 1.41724H36.8627L46.2377 24.5829ZM37.4627 15.6907L33.9002 6.07661L30.3752 15.6907H37.4627Z" fill="white" stroke="white" stroke-width="0.5" stroke-linejoin="round"/>
<path d="M11.0875 24.9437C8.6125 24.9437 6.4875 24.5499 4.7125 23.7624C2.9625 22.953 1.725 21.8374 1 20.4155L5.0125 17.9874C6.1375 19.978 8.1 20.9733 10.9 20.9733C13.75 20.9733 15.175 20.0108 15.175 18.0858C15.175 17.2327 14.825 16.6093 14.125 16.2155C13.425 15.7999 12.1375 15.4171 10.2625 15.0671C8.9875 14.8265 7.8875 14.553 6.9625 14.2468C6.0625 13.9405 5.1875 13.5249 4.3375 12.9999C3.5125 12.4749 2.8875 11.7968 2.4625 10.9655C2.0375 10.1343 1.825 9.1499 1.825 8.0124C1.825 5.84678 2.6375 4.15146 4.2625 2.92646C5.9125 1.67959 8.0375 1.05615 10.6375 1.05615C12.8625 1.05615 14.775 1.46084 16.375 2.27021C17.975 3.07959 19.0875 4.15147 19.7125 5.48584L15.5875 7.7499C14.5875 5.93428 13 5.02647 10.825 5.02647C9.675 5.02647 8.7625 5.27803 8.0875 5.78115C7.4125 6.28428 7.075 6.99522 7.075 7.91397C7.075 8.94209 7.4375 9.65303 8.1625 10.0468C8.9125 10.4405 10.325 10.8124 12.4 11.1624C14.925 11.578 16.8875 12.2999 18.2875 13.328C19.7125 14.3562 20.425 15.8874 20.425 17.9218C20.425 20.1749 19.6 21.914 17.95 23.139C16.3 24.3421 14.0125 24.9437 11.0875 24.9437Z" fill="white" stroke="white" stroke-width="0.5" stroke-linejoin="round"/>
</svg>
